# xmcd CD database file
#
# Track frame offsets:
#	150
#	16527
#	28000
#	41850
#	57737
#	70985
#	89490
#	100582
#	124912
#	136092
#	149000
#	161537
#	176685
#	195330
#	214632
#	226520
#	239407
#
# Disc length: 3571 seconds
#
# Revision: 0
# Processed by: cddbd v1.5.1PL0 Copyright (c) Steve Scherf et al.
# Submitted via: CDex 1.40Release
#
DISCID=e80df111
DTITLE=Nina Simone - The Very Best Of Nina Simone
DYEAR=2003
DGENRE=Blues
TTITLE0=Ne Me Quitte Pas
TTITLE1=I Love You Porgy
TTITLE2=My Baby Just Cares For Me
TTITLE3=Strange Fruit
TTITLE4=Feeling Good
TTITLE5=Love Me Or Leave Me
TTITLE6=Mood Indigo
TTITLE7=If You Knew/Let It Be Me
TTITLE8=That's All I Ask
TTITLE9=Images
TTITLE10=Don't Let Me Be Misunderstood
TTITLE11=Be My Husband
TTITLE12=I Love My Baby
TTITLE13=Lilac Wine
TTITLE14=See Line Woman
TTITLE15=What More I Can Say
TTITLE16=Plain Gold Ring
EXTD=YEAR: 2003 ID3G: 0
EXTT0=
EXTT1=
EXTT2=
EXTT3=
EXTT4=
EXTT5=
EXTT6=
EXTT7=
EXTT8=
EXTT9=
EXTT10=
EXTT11=
EXTT12=
EXTT13=
EXTT14=
EXTT15=
EXTT16=
PLAYORDER=
